<svg width="200" height="200" viewBox="0 0 200 200" fill="none" xmlns="http://www.w3.org/2000/svg">
<path d="M75.8373 71.6007C69.4373 75.4007 22.4373 72.2007 21.0373 79.6007C19.6373 87.0007 58.1373 109.501 60.6373 118.201C63.1373 126.901 44.7373 168.001 51.2373 172.701C57.7373 177.501 91.1373 146.601 100.237 147.001C109.237 147.301 141.237 176.901 149.237 172.701C157.237 168.601 137.637 129.901 139.837 118.201C142.137 106.501 181.737 85.9007 179.437 79.6007C176.737 71.9007 132.137 76.7007 124.637 71.6007C117.137 66.5007 107.137 21.8007 100.137 22.0007C93.3373 22.1007 82.2373 67.8007 75.8373 71.6007Z" fill="#6B0092"/>
</svg>
