<svg width="200" height="200" viewBox="0 0 200 200" fill="none" xmlns="http://www.w3.org/2000/svg">
<path d="M100.3 151.4V44.4C100.3 36.5 93.9 30 85.9 30C78 30 71.5 36.4 71.5 44.4C71.5 45.2 71.6 45.9 71.7 46.7C70.2 46.2 68.7 45.8 67 45.8C59.7 45.8 53.7 51.8 53.7 59.1C53.7 62.4 54.9 65.4 56.9 67.7C47.9 67.7 40.7 75 40.7 83.9C40.7 88.3 42.5 92.3 45.3 95.2C37.1 97.4 31 104.8 31 113.8C31 123.3 38 131.2 47.1 132.7C46.1 134.9 45.5 137.2 45.5 139.8C45.5 149.1 53 156.6 62.3 156.6C64.3 156.6 66.3 156.2 68.1 155.5C69 163.6 75.8 169.9 84.2 169.9C93.2 169.9 100.4 162.6 100.4 153.7C100.5 152.8 100.4 152.1 100.3 151.4Z" fill="#6B0092" stroke="white" stroke-width="2.8346" stroke-miterlimit="10"/>
<path d="M100.3 151.4V44.4C100.3 36.5 106.7 30 114.7 30C122.6 30 129.1 36.4 129.1 44.4C129.1 45.2 129 45.9 128.9 46.7C130.4 46.2 131.9 45.8 133.6 45.8C140.9 45.8 146.9 51.8 146.9 59.1C146.9 62.4 145.7 65.4 143.7 67.7C152.7 67.7 159.9 75 159.9 83.9C159.9 88.3 158.1 92.3 155.3 95.2C163.5 97.4 169.6 104.8 169.6 113.8C169.6 123.3 162.6 131.2 153.5 132.7C154.5 134.9 155.1 137.2 155.1 139.8C155.1 149.1 147.6 156.6 138.3 156.6C136.3 156.6 134.3 156.2 132.5 155.5C131.6 163.6 124.8 169.9 116.4 169.9C107.4 169.9 100.2 162.6 100.2 153.7C100.1 152.8 100.2 152.1 100.3 151.4Z" fill="#6B0092" stroke="white" stroke-width="2.8346" stroke-miterlimit="10"/>
<path d="M129.1 99.5001C133.574 99.5001 137.2 95.8735 137.2 91.4C137.2 86.9265 133.574 83.3 129.1 83.3C124.627 83.3 121 86.9265 121 91.4C121 95.8735 124.627 99.5001 129.1 99.5001Z" fill="#6B0092" stroke="white" stroke-width="2.8346" stroke-miterlimit="10"/>
<path d="M133.8 140.2C138.274 140.2 141.9 136.573 141.9 132.1C141.9 127.626 138.274 124 133.8 124C129.327 124 125.7 127.626 125.7 132.1C125.7 136.573 129.327 140.2 133.8 140.2Z" fill="#6B0092" stroke="white" stroke-width="2.8346" stroke-miterlimit="10"/>
<path d="M79.2001 77.7C83.6736 77.7 87.3 74.0735 87.3 69.6C87.3 65.1265 83.6736 61.5 79.2001 61.5C74.7266 61.5 71.1001 65.1265 71.1001 69.6C71.1001 74.0735 74.7266 77.7 79.2001 77.7Z" fill="#6B0092" stroke="white" stroke-width="2.8346" stroke-miterlimit="10"/>
<path d="M74.4999 136.2C78.9734 136.2 82.5999 132.573 82.5999 128.1C82.5999 123.626 78.9734 120 74.4999 120C70.0264 120 66.3999 123.626 66.3999 128.1C66.3999 132.573 70.0264 136.2 74.4999 136.2Z" fill="#6B0092" stroke="white" stroke-width="2.8346" stroke-miterlimit="10"/>
<path d="M87.2002 68.1001H120.3C120.3 68.1001 124.1 69.4 126.7 72.3C129.3 75.2 129 83.2001 129 83.2001" stroke="white" stroke-width="2.8346" stroke-miterlimit="10"/>
<path d="M100.2 131H125.7" stroke="white" stroke-width="2.8346" stroke-miterlimit="10"/>
<path d="M100.2 106.4H81.8C81.8 106.4 79.2 107 76.8 110.2C74.5 113.4 74.5 119.5 74.5 119.5" stroke="white" stroke-width="2.8346" stroke-miterlimit="10"/>
</svg>
