<svg width="200" height="200" viewBox="0 0 200 200" fill="none" xmlns="http://www.w3.org/2000/svg">
<path d="M174.4 123.1L159.5 94.9C156.7 89.6 150 87.5 144.7 90.3L144.6 90.4C143 91.3 141.6 92.5 140.6 94C137.3 90.3 131.8 89.3 127.3 91.6L127.2 91.7C125.5 92.6 124.1 93.9 123.1 95.4C119.7 92.1 114.5 91.2 110.3 93.5L110.2 93.6C108.7 94.4 107.4 95.5 106.4 96.9L94.7 74.7C93.2 71.9 90.5 69.8 87.4 69.1C84.9 68.5 82.2 68.9 79.8 70.2C74.5 73 72.4 79.6 75.2 85L103.4 138.5L97.1 135.1C93.8 133.3 90.1 133.1 86.6 134.4C86.2 134.6 85.7 134.8 85.3 135C83.1 136.2 81.2 138 80 140.4C77 146.2 78.9 153.3 84.5 156.8C84.7 156.9 100.8 167.3 110.5 173.7L121.6 181.3L122 181.6L122.1 181.7L122.4 181.9C134.4 189.8 149.6 190.6 162.3 183.8C171.5 178.9 178.3 170.7 181.4 160.8C184.5 150.8 183.5 140.2 178.6 131L178.5 130.8C177.8 129.5 177.1 128.2 176.5 126.9C176.1 126 175.6 125.2 175.2 124.3C174.7 123.6 174.4 123.2 174.4 123.1ZM170.7 129.2L170.9 129.6C171.2 130.3 171.5 130.8 171.9 131.6C171.9 131.6 174.1 135.7 175 138C175.1 138.3 175.2 138.5 175.3 138.8C177.7 146 177.5 153.9 174.8 161C171.9 168.5 166.5 174.7 159.4 178.4C152.3 182.1 144.2 183.2 136.4 181.4C131.9 180.4 127.8 178.4 124.1 175.7C123 174.8 121.4 173.7 119.8 172.7L109.8 166L87.7 151.7L87.6 151.6C84.8 149.9 83.8 146.2 85.3 143.3L85.4 143.1C86 142 86.9 141 88 140.4C88.3 140.2 88.7 140.1 89 140C90.6 139.5 92.5 139.7 94.1 140.5L104.3 146C104.6 146.1 104.8 146.3 105.1 146.4C106.3 146.8 107.6 146.7 108.7 146.1C109.1 145.9 109.4 145.7 109.7 145.4C111.2 144 111.6 141.6 110.6 139.7L80.3 82.3C79.1 80 80 77 82.3 75.8L82.4 75.7C83.6 75 85 75 86.4 75.5C87.5 75.9 88.4 76.8 89 77.9L116.4 129.6C117.2 131.1 119 131.6 120.5 130.9C122 130.1 122.5 128.3 121.8 126.8L110.7 105.8C109.5 103.5 110.4 100.5 112.7 99.3L112.8 99.2C115.2 98 118.1 98.9 119.3 101.2L130.4 122.2C131.2 123.7 133 124.3 134.5 123.5C136 122.7 136.5 120.9 135.8 119.4L127.7 104C126.5 101.7 127.4 98.7 129.7 97.5L129.8 97.4C132.2 96.2 135.1 97.1 136.3 99.4L144.4 114.8C145.2 116.3 147 116.9 148.5 116.1C150 115.3 150.6 113.5 149.8 112L144.9 102.7C143.7 100.4 144.6 97.4 146.9 96.2L147 96.1C149.4 94.9 152.3 95.8 153.5 98.1L168.4 126.3V126.4C169.1 126.1 169.5 126.9 170.7 129.2Z" fill="#6B0092"/>
<path d="M74.3 93.6C74.6 93.8 74.9 94.2 75.1 94.5V94.6C76.5 97.2 73.4 99.9 71 98.2C68.3 96.2 66 93.6 64.3 90.4C58.2 78.9 62.9 64.6 74.7 59C85.6 53.8 98.7 58 104.6 68.5C106.6 72.1 107.5 75.9 107.5 79.7C107.5 82.6 103.6 83.5 102.2 81V80.9C102 80.5 101.9 80.1 101.9 79.6C101.9 76.5 101 73.3 99.2 70.4C94.6 63.1 85.1 60.4 77.3 64C68.3 68.2 64.7 79.1 69.3 87.8C70.6 90.2 72.3 92.1 74.3 93.6ZM59.4 93.1C51.9 78.8 57.6 61 72.3 54C85.8 47.5 102.1 52.6 109.5 65.6C112.9 71.6 113.9 78.4 112.8 84.7C112.5 86.4 113.7 87.9 115.4 88C115.4 88 115.4 88 115.5 88C116.9 88.1 118.1 87.1 118.4 85.7C119.7 78.2 118.6 70.2 114.5 63.1C105.6 47.3 85.8 41.2 69.6 49.2C52.3 57.7 45.5 78.9 54.5 95.9C59.9 106.1 69.8 112.5 80.4 113.8C82.6 114.1 84.2 111.8 83.2 109.8L83.1 109.6C82.7 108.8 81.9 108.3 81 108.2C72.1 106.8 63.9 101.5 59.4 93.1ZM84.6 12C47.3 12 17 42.3 17 79.6C17 111 38.5 137.5 67.6 145C68.9 145.3 72 145.4 72.5 143.2C73 141 69.7 139.8 68.7 139.5C42.2 132.5 22.6 108.3 22.6 79.6C22.6 45.4 50.4 17.6 84.6 17.6C118.8 17.6 146.6 45.4 146.6 79.6C146.6 80.2 146.6 80.9 146.5 81.6C146.5 82.9 146.5 85.4 149.1 85.4C151.7 85.4 152.1 82.6 152.1 81.2C152.1 80.6 152.1 80 152.1 79.6C152.2 42.3 121.9 12 84.6 12ZM84.6 23.2C53.5 23.2 28.2 48.5 28.2 79.6C28.2 106.2 46.8 128.6 71.6 134.5C72.2 134.6 78 136.4 78.8 133.2C79.8 129.6 76.3 129.7 75.4 129.6C51.7 125.3 33.7 104.6 33.7 79.7C33.7 51.7 56.5 29 84.4 29C112.3 29 135.1 51.8 135.1 79.7C135.1 81.4 134.8 84.8 134.8 84.8C134.8 84.8 135 86.9 137.6 86.9C140.2 86.9 140.4 84.4 140.4 84.4C140.4 84.4 140.6 81.3 140.6 79.7C141 48.5 115.7 23.2 84.6 23.2ZM84.6 34.4C59.7 34.4 39.5 54.6 39.5 79.5C39.5 102.7 57.1 121.9 79.7 124.4C81.3 124.6 87.4 124.8 86.8 121.3C86.3 118.1 81 118.9 79.9 118.7C60.3 116.4 45 99.7 45 79.5C45 57.7 62.7 40 84.5 40C106.3 40 124 57.7 124 79.5C124 80.6 123.9 82.2 123.7 83.6C123.5 85.1 123.3 87.3 126.2 87.3C129 87.3 129.3 84.5 129.4 83.7C129.5 82.4 129.6 80.6 129.6 79.5C129.8 54.7 109.5 34.4 84.6 34.4Z" fill="#6B0092"/>
</svg>
